<?xml version="1.0" encoding="utf-8"?>
<!-- Generator: Adobe Illustrator 25.4.5, SVG Export Plug-In . SVG Version: 6.00 Build 0)  -->
<svg version="1.1" id="Ebene_1" xmlns="http://www.w3.org/2000/svg" xmlns:xlink="http://www.w3.org/1999/xlink" x="0px" y="0px"
	 viewBox="0 0 48.53 48.61" style="enable-background:new 0 0 48.53 48.61;" xml:space="preserve">
<style type="text/css">
	.st0{fill:#1E7D74;}
	.st1{fill:#FFFFFF;stroke:#FFFFFF;stroke-width:0.7;stroke-linejoin:round;}
	.st2{fill:#FFFFFF;stroke:#FFFFFF;stroke-width:0.7;stroke-linejoin:round;stroke-miterlimit:4;}
	.st3{fill:#FFFFFF;}
	.st4{fill:none;stroke:#FFFFFF;stroke-width:2;}
	.st5{fill:#FFFFFF;stroke:#FFFFFF;}
	.st6{opacity:0.2;fill:none;stroke:#FFFFFF;stroke-width:2;enable-background:new    ;}
</style>
<g>
	<path class="st0" d="M47.66,24.56L47.66,24.56c0,12.62-10.23,22.84-22.84,22.84h-0.86c-12.62,0-22.84-10.23-22.84-22.84l0,0
		c0-12.62,10.23-22.84,22.84-22.84h0.86C37.43,1.72,47.66,11.94,47.66,24.56z"/>
	<path class="st4" d="M36.45,24.13L36.45,24.13c0,6.19-5.02,11.21-11.21,11.21h-0.86c-6.19,0-11.21-5.02-11.21-11.21l0,0
		c0-6.19,5.02-11.21,11.21-11.21h0.86C31.44,12.92,36.45,17.94,36.45,24.13z"/>
	<path class="st5" d="M24.82,35.76V12.92c7.56,1.19,9.8,3.86,11.21,11.21C35.92,31.49,33.02,33.73,24.82,35.76z"/>
</g>
</svg>
