<svg xmlns="http://www.w3.org/2000/svg" viewBox="0 0 48 48">
  
<g transform="matrix(2,0,0,2,0,0)"><g>
    <path d="M17.57,20.51H17a.24.24,0,0,1-.23-.17L10.64,2.52a1.46,1.46,0,0,0-1.38-1h0a1.49,1.49,0,0,0-1.39,1L1.8,20.34a.25.25,0,0,1-.23.17H1a1,1,0,1,0,0,2h3a1,1,0,0,0,1-1,.94.94,0,0,0-.81-.95.3.3,0,0,1-.17-.12.28.28,0,0,1,0-.2l1.5-4.42a.25.25,0,0,1,.24-.16h7.23a.25.25,0,0,1,.23.16l1.5,4.42a.23.23,0,0,1,0,.2.3.3,0,0,1-.17.12,1,1,0,0,0-.79.95,1,1,0,0,0,1,1h3a1,1,0,0,0,0-2ZM6.48,13.68a.26.26,0,0,1-.2-.1.24.24,0,0,1,0-.23L9,5.2A.26.26,0,0,1,9.26,5a.26.26,0,0,1,.23.17l2.78,8.15a.27.27,0,0,1,0,.23.26.26,0,0,1-.2.1Z" style="fill: #000000"></path>
    <path d="M23,20.51H22.8a.24.24,0,0,1-.23-.17L18.31,7.89a1.53,1.53,0,0,0-2.89,0l-1.16,3.39a1,1,0,0,0,1.86.63l.51-1.51a.26.26,0,0,1,.23-.17.26.26,0,0,1,.24.17l1.46,4.29a.22.22,0,0,1,0,.22.24.24,0,0,1-.2.11H17a1,1,0,0,0,0,2h2.2a.25.25,0,0,1,.23.16l1.1,3.21a.27.27,0,0,1-.12.3,1,1,0,0,0-.52.85,1,1,0,0,0,1,1H23a1,1,0,0,0,0-2Z" style="fill: #000000"></path>
  </g></g></svg>