<?xml version="1.0" encoding="utf-8"?>
<!-- Generator: Adobe Illustrator 25.4.5, SVG Export Plug-In . SVG Version: 6.00 Build 0)  -->
<svg version="1.1" id="Ebene_1" xmlns="http://www.w3.org/2000/svg" xmlns:xlink="http://www.w3.org/1999/xlink" x="0px" y="0px"
	 viewBox="0 0 32.4 28" style="enable-background:new 0 0 32.4 28;" xml:space="preserve">
<style type="text/css">
	.st0{fill:#1E7D74;}
	.st1{fill:#FFFFFF;stroke:#FFFFFF;stroke-width:0.7;stroke-linejoin:round;}
	.st2{fill:#FFFFFF;stroke:#FFFFFF;stroke-width:0.7;stroke-linejoin:round;stroke-miterlimit:4;}
	.st3{fill:#FFFFFF;}
	.st4{fill:none;stroke:#FFFFFF;stroke-width:2;}
	.st5{fill:#FFFFFF;stroke:#FFFFFF;}
	.st6{opacity:0.2;fill:none;stroke:#FFFFFF;stroke-width:2;enable-background:new    ;}
</style>
<path class="st3" d="M31.19,5.93h-8.06v19.89h-3V5.93h-8.06V3.26h19.12V5.93z"/>
<path class="st3" d="M7.11,9.53h-5.3V8.15h12.2v1.38h-5.3v13.71H7.11V9.53z"/>
<path class="st3" d="M7.11,9.53h0.26V9.28H7.11V9.53z M1.81,9.53H1.55v0.26h0.26V9.53z M1.81,8.15V7.9H1.55v0.26H1.81z M14.01,8.15
	h0.26V7.9h-0.26V8.15z M14.01,9.53v0.26h0.26V9.53H14.01z M8.71,9.53V9.28H8.45v0.26H8.71z M8.71,23.24v0.26h0.26v-0.26H8.71z
	 M7.11,23.24H6.85v0.26h0.26V23.24z M7.11,9.28h-5.3v0.52h5.3V9.28z M2.07,9.53V8.15H1.55v1.38H2.07z M1.81,8.41h12.2V7.9H1.81V8.41
	z M13.75,8.15v1.38h0.52V8.15H13.75z M14.01,9.28h-5.3v0.52h5.3V9.28z M8.45,9.53v13.71h0.52V9.53H8.45z M8.71,22.98H7.11v0.52h1.59
	V22.98z M7.37,23.24V9.53H6.85v13.71H7.37z"/>
</svg>

