<svg xmlns="http://www.w3.org/2000/svg" viewBox="0 0 500 500">
  
<g transform="matrix(20.833333333333332,0,0,20.833333333333332,0,0)"><g>
    <path d="M1,16.25H2.67a1.86,1.86,0,0,0,1.78-1.5,2.12,2.12,0,0,0,0-.44V14a.25.25,0,0,1,.25-.25H6a.48.48,0,0,1,.37.17l3.59,4a.88.88,0,0,0,.67.31.87.87,0,0,0,.87-.87c0-.28,0-.4-.07-.5l-.78-.78a.49.49,0,1,1,.7-.7l.93.92A1.18,1.18,0,0,0,14,15.59a.26.26,0,0,0-.06-.25L12.65,14.1a.49.49,0,0,1,.7-.7l1.28,1.28c.1.09.21.07.37.07a1,1,0,0,0,.8-1.6L12.93,9.47a.26.26,0,0,0-.28-.09l-1.56.52A1.69,1.69,0,0,1,9,9a1.67,1.67,0,0,1,.25-1.83.25.25,0,0,0,.05-.25.24.24,0,0,0-.2-.16,1.62,1.62,0,0,0-.84.1L4.84,8.25a.27.27,0,0,1-.23,0A.26.26,0,0,1,4.5,8V7.69a2.1,2.1,0,0,0,0-.36,1.88,1.88,0,0,0-1.8-1.58H1a1,1,0,0,0-1,1v8.5A1,1,0,0,0,1,16.25Z" style="fill: #000000"></path>
    <path d="M14.66,8.73l-.49.16a.25.25,0,0,0-.17.16.28.28,0,0,0,.05.23l2.54,3.26A2,2,0,0,1,17,13.75a1.66,1.66,0,0,1,0,.32.27.27,0,0,0,.08.22.26.26,0,0,0,.22.07L19.2,14a.23.23,0,0,1,.21,0,.25.25,0,0,1,.09.19,2,2,0,0,0,.1.7,1.84,1.84,0,0,0,1.73,1.32H23a1,1,0,0,0,1-1V6.75a1,1,0,0,0-1-1H21.33a1.79,1.79,0,0,0-1.44.75,2,2,0,0,0-.32.66.26.26,0,0,1-.12.15.31.31,0,0,1-.21,0l-4-1.46A2,2,0,0,0,13.71,6L10.26,7.68a.68.68,0,0,0-.32.9.69.69,0,0,0,.84.37l3.56-1.17a.49.49,0,0,1,.63.31A.5.5,0,0,1,14.66,8.73Z" style="fill: #000000"></path>
  </g></g></svg>